<?xml version="1.0" encoding="utf-8"?>
<!-- Generator: Adobe Illustrator 22.0.1, SVG Export Plug-In . SVG Version: 6.00 Build 0)  -->
<svg version="1.1" baseProfile="tiny" id="YNOV_CAMPUS"
	 xmlns="http://www.w3.org/2000/svg" xmlns:xlink="http://www.w3.org/1999/xlink" x="0px" y="0px" viewBox="0 0 140.3 70.3"
	 xml:space="preserve">
<g>
	<path fill="#FFFFFF" d="M45.4,57.1c-2.2,0-3.9-1.8-3.9-4.1c0-2.3,1.7-4,3.9-4c1.1,0,2.3,0.6,3.1,1.5l1.1-1.4
		c-1.1-1.1-2.6-1.8-4.2-1.8c-3.3,0-5.8,2.5-5.8,5.8c0,3.3,2.5,5.8,5.7,5.8c1.6,0,3.2-0.7,4.3-1.9l-1.1-1.3
		C47.7,56.6,46.5,57.1,45.4,57.1z"/>
	<path fill="#FFFFFF" d="M56.8,47.4L52,58.9h1.9l1.1-2.6h5.6l1.1,2.6h2l-4.8-11.5H56.8z M55.6,54.5l2.1-5.1l2.1,5.1H55.6z"/>
	<polygon fill="#FFFFFF" points="72.9,55 69.2,47.4 67,47.4 67,58.9 68.8,58.9 68.8,50.3 72.2,57.7 73.5,57.7 76.9,50.3 76.9,58.9 
		78.7,58.9 78.7,47.4 76.5,47.4 	"/>
	<path fill="#FFFFFF" d="M88,47.4h-4.4v11.5h1.9v-3.5H88c2.8,0,4.4-1.5,4.4-4.1C92.3,48.8,90.7,47.4,88,47.4z M87.9,53.7h-2.5v-4.5
		h2.5c1.7,0,2.7,0.7,2.7,2.2C90.5,52.9,89.6,53.7,87.9,53.7z"/>
	<path fill="#FFFFFF" d="M103.7,54.1c0,2-1.1,3.1-2.9,3.1c-1.8,0-3-1.2-3-3.1v-6.7h-1.9v6.7c0,3,1.8,4.8,4.8,4.8
		c3,0,4.8-1.8,4.8-4.8v-6.7h-1.9V54.1z"/>
	<path fill="#FFFFFF" d="M111.9,50.3c0-0.8,0.7-1.2,1.8-1.2c0.8,0,2,0.3,3.2,1.1l0.8-1.7c-1-0.7-2.4-1.2-3.9-1.2c-2.4,0-4,1.2-4,3.2
		c0,4.1,6,2.7,6,5.2c0,0.9-0.8,1.4-2.1,1.4c-1.2,0-2.6-0.6-3.7-1.7l-0.8,1.7c1.1,1.1,2.8,1.8,4.5,1.8c2.4,0,4.2-1.3,4.2-3.3
		C117.8,51.5,111.9,52.8,111.9,50.3z"/>
	<path fill="#FFFFFF" d="M86.1,40.2c8,0,14.5-6.4,14.5-14.4s-6.5-14.4-14.5-14.4c-8,0-14.5,6.4-14.5,14.4S78.1,40.2,86.1,40.2z
		 M86.1,18.2c4.2,0,7.6,3.4,7.6,7.5c0,4.2-3.4,7.5-7.6,7.5c-4.2,0-7.6-3.4-7.6-7.5C78.5,21.6,81.9,18.2,86.1,18.2z"/>
	<path fill="#FFFFFF" d="M39.7,40.2h6.9l0-14c0-4.3,3.4-7.7,7.6-7.7c4.2,0,7.6,3.4,7.6,7.7v14h6.9l0-14c0-8.1-6.5-14.7-14.5-14.7
		c-8,0-14.5,6.6-14.5,14.7V40.2z"/>
	<path fill="#FFFFFF" d="M24.1,26.4c0-1-0.2-1.9-0.5-2.7l-4.7-12.2h-7.4L19.7,33C22.3,32,24.1,29.4,24.1,26.4z"/>
	<polygon fill="#FFFFFF" points="117.8,40.2 128.8,11.5 121.4,11.5 110.4,40.2 	"/>
	<path fill="#FFFFFF" d="M112,26.4c0-1-0.2-1.9-0.5-2.7l-4.7-12.2h-7.4l8.3,21.5C110.2,32,112,29.4,112,26.4z"/>
	<polygon fill="#FFFFFF" points="33.5,11.5 15.3,58.9 22.7,58.9 40.9,11.5 	"/>
</g>
</svg>
